<?xml version="1.0" encoding="UTF-8"?>
<svg version="1.1" baseProfile="tiny" xmlns="http://www.w3.org/2000/svg" width="50" height="50">
<rect shape-rendering="optimizeSpeed"  x="0" y="0" width="50" height="50" fill="white" />
<rect shape-rendering="optimizeSpeed"  x="12" y="12" width="1" height="1" fill="black" />
<rect shape-rendering="optimizeSpeed"  x="13" y="12" width="1" height="1" fill="black" />
<rect shape-rendering="optimizeSpeed"  x="14" y="12" width="1" height="1" fill="black" />
<rect shape-rendering="optimizeSpeed"  x="15" y="12" width="1" height="1" fill="black" />
<rect shape-rendering="optimizeSpeed"  x="16" y="12" width="1" height="1" fill="black" />
<rect shape-rendering="optimizeSpeed"  x="17" y="12" width="1" height="1" fill="black" />
<rect shape-rendering="optimizeSpeed"  x="18" y="12" width="1" height="1" fill="black" />
<rect shape-rendering="optimizeSpeed"  x="20" y="12" width="1" height="1" fill="black" />
<rect shape-rendering="optimizeSpeed"  x="21" y="12" width="1" height="1" fill="black" />
<rect shape-rendering="optimizeSpeed"  x="26" y="12" width="1" height="1" fill="black" />
<rect shape-rendering="optimizeSpeed"  x="30" y="12" width="1" height="1" fill="black" />
<rect shape-rendering="optimizeSpeed"  x="31" y="12" width="1" height="1" fill="black" />
<rect shape-rendering="optimizeSpeed"  x="32" y="12" width="1" height="1" fill="black" />
<rect shape-rendering="optimizeSpeed"  x="33" y="12" width="1" height="1" fill="black" />
<rect shape-rendering="optimizeSpeed"  x="34" y="12" width="1" height="1" fill="black" />
<rect shape-rendering="optimizeSpeed"  x="35" y="12" width="1" height="1" fill="black" />
<rect shape-rendering="optimizeSpeed"  x="36" y="12" width="1" height="1" fill="black" />
<rect shape-rendering="optimizeSpeed"  x="12" y="13" width="1" height="1" fill="black" />
<rect shape-rendering="optimizeSpeed"  x="18" y="13" width="1" height="1" fill="black" />
<rect shape-rendering="optimizeSpeed"  x="21" y="13" width="1" height="1" fill="black" />
<rect shape-rendering="optimizeSpeed"  x="25" y="13" width="1" height="1" fill="black" />
<rect shape-rendering="optimizeSpeed"  x="28" y="13" width="1" height="1" fill="black" />
<rect shape-rendering="optimizeSpeed"  x="30" y="13" width="1" height="1" fill="black" />
<rect shape-rendering="optimizeSpeed"  x="36" y="13" width="1" height="1" fill="black" />
<rect shape-rendering="optimizeSpeed"  x="12" y="14" width="1" height="1" fill="black" />
<rect shape-rendering="optimizeSpeed"  x="14" y="14" width="1" height="1" fill="black" />
<rect shape-rendering="optimizeSpeed"  x="15" y="14" width="1" height="1" fill="black" />
<rect shape-rendering="optimizeSpeed"  x="16" y="14" width="1" height="1" fill="black" />
<rect shape-rendering="optimizeSpeed"  x="18" y="14" width="1" height="1" fill="black" />
<rect shape-rendering="optimizeSpeed"  x="21" y="14" width="1" height="1" fill="black" />
<rect shape-rendering="optimizeSpeed"  x="22" y="14" width="1" height="1" fill="black" />
<rect shape-rendering="optimizeSpeed"  x="24" y="14" width="1" height="1" fill="black" />
<rect shape-rendering="optimizeSpeed"  x="25" y="14" width="1" height="1" fill="black" />
<rect shape-rendering="optimizeSpeed"  x="26" y="14" width="1" height="1" fill="black" />
<rect shape-rendering="optimizeSpeed"  x="30" y="14" width="1" height="1" fill="black" />
<rect shape-rendering="optimizeSpeed"  x="32" y="14" width="1" height="1" fill="black" />
<rect shape-rendering="optimizeSpeed"  x="33" y="14" width="1" height="1" fill="black" />
<rect shape-rendering="optimizeSpeed"  x="34" y="14" width="1" height="1" fill="black" />
<rect shape-rendering="optimizeSpeed"  x="36" y="14" width="1" height="1" fill="black" />
<rect shape-rendering="optimizeSpeed"  x="12" y="15" width="1" height="1" fill="black" />
<rect shape-rendering="optimizeSpeed"  x="14" y="15" width="1" height="1" fill="black" />
<rect shape-rendering="optimizeSpeed"  x="15" y="15" width="1" height="1" fill="black" />
<rect shape-rendering="optimizeSpeed"  x="16" y="15" width="1" height="1" fill="black" />
<rect shape-rendering="optimizeSpeed"  x="18" y="15" width="1" height="1" fill="black" />
<rect shape-rendering="optimizeSpeed"  x="21" y="15" width="1" height="1" fill="black" />
<rect shape-rendering="optimizeSpeed"  x="24" y="15" width="1" height="1" fill="black" />
<rect shape-rendering="optimizeSpeed"  x="25" y="15" width="1" height="1" fill="black" />
<rect shape-rendering="optimizeSpeed"  x="26" y="15" width="1" height="1" fill="black" />
<rect shape-rendering="optimizeSpeed"  x="27" y="15" width="1" height="1" fill="black" />
<rect shape-rendering="optimizeSpeed"  x="28" y="15" width="1" height="1" fill="black" />
<rect shape-rendering="optimizeSpeed"  x="30" y="15" width="1" height="1" fill="black" />
<rect shape-rendering="optimizeSpeed"  x="32" y="15" width="1" height="1" fill="black" />
<rect shape-rendering="optimizeSpeed"  x="33" y="15" width="1" height="1" fill="black" />
<rect shape-rendering="optimizeSpeed"  x="34" y="15" width="1" height="1" fill="black" />
<rect shape-rendering="optimizeSpeed"  x="36" y="15" width="1" height="1" fill="black" />
<rect shape-rendering="optimizeSpeed"  x="12" y="16" width="1" height="1" fill="black" />
<rect shape-rendering="optimizeSpeed"  x="14" y="16" width="1" height="1" fill="black" />
<rect shape-rendering="optimizeSpeed"  x="15" y="16" width="1" height="1" fill="black" />
<rect shape-rendering="optimizeSpeed"  x="16" y="16" width="1" height="1" fill="black" />
<rect shape-rendering="optimizeSpeed"  x="18" y="16" width="1" height="1" fill="black" />
<rect shape-rendering="optimizeSpeed"  x="22" y="16" width="1" height="1" fill="black" />
<rect shape-rendering="optimizeSpeed"  x="25" y="16" width="1" height="1" fill="black" />
<rect shape-rendering="optimizeSpeed"  x="26" y="16" width="1" height="1" fill="black" />
<rect shape-rendering="optimizeSpeed"  x="28" y="16" width="1" height="1" fill="black" />
<rect shape-rendering="optimizeSpeed"  x="30" y="16" width="1" height="1" fill="black" />
<rect shape-rendering="optimizeSpeed"  x="32" y="16" width="1" height="1" fill="black" />
<rect shape-rendering="optimizeSpeed"  x="33" y="16" width="1" height="1" fill="black" />
<rect shape-rendering="optimizeSpeed"  x="34" y="16" width="1" height="1" fill="black" />
<rect shape-rendering="optimizeSpeed"  x="36" y="16" width="1" height="1" fill="black" />
<rect shape-rendering="optimizeSpeed"  x="12" y="17" width="1" height="1" fill="black" />
<rect shape-rendering="optimizeSpeed"  x="18" y="17" width="1" height="1" fill="black" />
<rect shape-rendering="optimizeSpeed"  x="22" y="17" width="1" height="1" fill="black" />
<rect shape-rendering="optimizeSpeed"  x="23" y="17" width="1" height="1" fill="black" />
<rect shape-rendering="optimizeSpeed"  x="24" y="17" width="1" height="1" fill="black" />
<rect shape-rendering="optimizeSpeed"  x="25" y="17" width="1" height="1" fill="black" />
<rect shape-rendering="optimizeSpeed"  x="26" y="17" width="1" height="1" fill="black" />
<rect shape-rendering="optimizeSpeed"  x="30" y="17" width="1" height="1" fill="black" />
<rect shape-rendering="optimizeSpeed"  x="36" y="17" width="1" height="1" fill="black" />
<rect shape-rendering="optimizeSpeed"  x="12" y="18" width="1" height="1" fill="black" />
<rect shape-rendering="optimizeSpeed"  x="13" y="18" width="1" height="1" fill="black" />
<rect shape-rendering="optimizeSpeed"  x="14" y="18" width="1" height="1" fill="black" />
<rect shape-rendering="optimizeSpeed"  x="15" y="18" width="1" height="1" fill="black" />
<rect shape-rendering="optimizeSpeed"  x="16" y="18" width="1" height="1" fill="black" />
<rect shape-rendering="optimizeSpeed"  x="17" y="18" width="1" height="1" fill="black" />
<rect shape-rendering="optimizeSpeed"  x="18" y="18" width="1" height="1" fill="black" />
<rect shape-rendering="optimizeSpeed"  x="20" y="18" width="1" height="1" fill="black" />
<rect shape-rendering="optimizeSpeed"  x="22" y="18" width="1" height="1" fill="black" />
<rect shape-rendering="optimizeSpeed"  x="24" y="18" width="1" height="1" fill="black" />
<rect shape-rendering="optimizeSpeed"  x="26" y="18" width="1" height="1" fill="black" />
<rect shape-rendering="optimizeSpeed"  x="28" y="18" width="1" height="1" fill="black" />
<rect shape-rendering="optimizeSpeed"  x="30" y="18" width="1" height="1" fill="black" />
<rect shape-rendering="optimizeSpeed"  x="31" y="18" width="1" height="1" fill="black" />
<rect shape-rendering="optimizeSpeed"  x="32" y="18" width="1" height="1" fill="black" />
<rect shape-rendering="optimizeSpeed"  x="33" y="18" width="1" height="1" fill="black" />
<rect shape-rendering="optimizeSpeed"  x="34" y="18" width="1" height="1" fill="black" />
<rect shape-rendering="optimizeSpeed"  x="35" y="18" width="1" height="1" fill="black" />
<rect shape-rendering="optimizeSpeed"  x="36" y="18" width="1" height="1" fill="black" />
<rect shape-rendering="optimizeSpeed"  x="20" y="19" width="1" height="1" fill="black" />
<rect shape-rendering="optimizeSpeed"  x="22" y="19" width="1" height="1" fill="black" />
<rect shape-rendering="optimizeSpeed"  x="23" y="19" width="1" height="1" fill="black" />
<rect shape-rendering="optimizeSpeed"  x="25" y="19" width="1" height="1" fill="black" />
<rect shape-rendering="optimizeSpeed"  x="27" y="19" width="1" height="1" fill="black" />
<rect shape-rendering="optimizeSpeed"  x="12" y="20" width="1" height="1" fill="black" />
<rect shape-rendering="optimizeSpeed"  x="13" y="20" width="1" height="1" fill="black" />
<rect shape-rendering="optimizeSpeed"  x="15" y="20" width="1" height="1" fill="black" />
<rect shape-rendering="optimizeSpeed"  x="16" y="20" width="1" height="1" fill="black" />
<rect shape-rendering="optimizeSpeed"  x="18" y="20" width="1" height="1" fill="black" />
<rect shape-rendering="optimizeSpeed"  x="26" y="20" width="1" height="1" fill="black" />
<rect shape-rendering="optimizeSpeed"  x="27" y="20" width="1" height="1" fill="black" />
<rect shape-rendering="optimizeSpeed"  x="28" y="20" width="1" height="1" fill="black" />
<rect shape-rendering="optimizeSpeed"  x="30" y="20" width="1" height="1" fill="black" />
<rect shape-rendering="optimizeSpeed"  x="36" y="20" width="1" height="1" fill="black" />
<rect shape-rendering="optimizeSpeed"  x="13" y="21" width="1" height="1" fill="black" />
<rect shape-rendering="optimizeSpeed"  x="15" y="21" width="1" height="1" fill="black" />
<rect shape-rendering="optimizeSpeed"  x="17" y="21" width="1" height="1" fill="black" />
<rect shape-rendering="optimizeSpeed"  x="20" y="21" width="1" height="1" fill="black" />
<rect shape-rendering="optimizeSpeed"  x="22" y="21" width="1" height="1" fill="black" />
<rect shape-rendering="optimizeSpeed"  x="23" y="21" width="1" height="1" fill="black" />
<rect shape-rendering="optimizeSpeed"  x="26" y="21" width="1" height="1" fill="black" />
<rect shape-rendering="optimizeSpeed"  x="27" y="21" width="1" height="1" fill="black" />
<rect shape-rendering="optimizeSpeed"  x="31" y="21" width="1" height="1" fill="black" />
<rect shape-rendering="optimizeSpeed"  x="32" y="21" width="1" height="1" fill="black" />
<rect shape-rendering="optimizeSpeed"  x="33" y="21" width="1" height="1" fill="black" />
<rect shape-rendering="optimizeSpeed"  x="34" y="21" width="1" height="1" fill="black" />
<rect shape-rendering="optimizeSpeed"  x="35" y="21" width="1" height="1" fill="black" />
<rect shape-rendering="optimizeSpeed"  x="12" y="22" width="1" height="1" fill="black" />
<rect shape-rendering="optimizeSpeed"  x="18" y="22" width="1" height="1" fill="black" />
<rect shape-rendering="optimizeSpeed"  x="20" y="22" width="1" height="1" fill="black" />
<rect shape-rendering="optimizeSpeed"  x="21" y="22" width="1" height="1" fill="black" />
<rect shape-rendering="optimizeSpeed"  x="23" y="22" width="1" height="1" fill="black" />
<rect shape-rendering="optimizeSpeed"  x="25" y="22" width="1" height="1" fill="black" />
<rect shape-rendering="optimizeSpeed"  x="26" y="22" width="1" height="1" fill="black" />
<rect shape-rendering="optimizeSpeed"  x="27" y="22" width="1" height="1" fill="black" />
<rect shape-rendering="optimizeSpeed"  x="29" y="22" width="1" height="1" fill="black" />
<rect shape-rendering="optimizeSpeed"  x="31" y="22" width="1" height="1" fill="black" />
<rect shape-rendering="optimizeSpeed"  x="33" y="22" width="1" height="1" fill="black" />
<rect shape-rendering="optimizeSpeed"  x="36" y="22" width="1" height="1" fill="black" />
<rect shape-rendering="optimizeSpeed"  x="12" y="23" width="1" height="1" fill="black" />
<rect shape-rendering="optimizeSpeed"  x="15" y="23" width="1" height="1" fill="black" />
<rect shape-rendering="optimizeSpeed"  x="17" y="23" width="1" height="1" fill="black" />
<rect shape-rendering="optimizeSpeed"  x="19" y="23" width="1" height="1" fill="black" />
<rect shape-rendering="optimizeSpeed"  x="20" y="23" width="1" height="1" fill="black" />
<rect shape-rendering="optimizeSpeed"  x="23" y="23" width="1" height="1" fill="black" />
<rect shape-rendering="optimizeSpeed"  x="27" y="23" width="1" height="1" fill="black" />
<rect shape-rendering="optimizeSpeed"  x="30" y="23" width="1" height="1" fill="black" />
<rect shape-rendering="optimizeSpeed"  x="31" y="23" width="1" height="1" fill="black" />
<rect shape-rendering="optimizeSpeed"  x="33" y="23" width="1" height="1" fill="black" />
<rect shape-rendering="optimizeSpeed"  x="34" y="23" width="1" height="1" fill="black" />
<rect shape-rendering="optimizeSpeed"  x="35" y="23" width="1" height="1" fill="black" />
<rect shape-rendering="optimizeSpeed"  x="36" y="23" width="1" height="1" fill="black" />
<rect shape-rendering="optimizeSpeed"  x="13" y="24" width="1" height="1" fill="black" />
<rect shape-rendering="optimizeSpeed"  x="15" y="24" width="1" height="1" fill="black" />
<rect shape-rendering="optimizeSpeed"  x="18" y="24" width="1" height="1" fill="black" />
<rect shape-rendering="optimizeSpeed"  x="19" y="24" width="1" height="1" fill="black" />
<rect shape-rendering="optimizeSpeed"  x="20" y="24" width="1" height="1" fill="black" />
<rect shape-rendering="optimizeSpeed"  x="21" y="24" width="1" height="1" fill="black" />
<rect shape-rendering="optimizeSpeed"  x="22" y="24" width="1" height="1" fill="black" />
<rect shape-rendering="optimizeSpeed"  x="23" y="24" width="1" height="1" fill="black" />
<rect shape-rendering="optimizeSpeed"  x="24" y="24" width="1" height="1" fill="black" />
<rect shape-rendering="optimizeSpeed"  x="28" y="24" width="1" height="1" fill="black" />
<rect shape-rendering="optimizeSpeed"  x="30" y="24" width="1" height="1" fill="black" />
<rect shape-rendering="optimizeSpeed"  x="31" y="24" width="1" height="1" fill="black" />
<rect shape-rendering="optimizeSpeed"  x="36" y="24" width="1" height="1" fill="black" />
<rect shape-rendering="optimizeSpeed"  x="12" y="25" width="1" height="1" fill="black" />
<rect shape-rendering="optimizeSpeed"  x="15" y="25" width="1" height="1" fill="black" />
<rect shape-rendering="optimizeSpeed"  x="16" y="25" width="1" height="1" fill="black" />
<rect shape-rendering="optimizeSpeed"  x="19" y="25" width="1" height="1" fill="black" />
<rect shape-rendering="optimizeSpeed"  x="21" y="25" width="1" height="1" fill="black" />
<rect shape-rendering="optimizeSpeed"  x="23" y="25" width="1" height="1" fill="black" />
<rect shape-rendering="optimizeSpeed"  x="26" y="25" width="1" height="1" fill="black" />
<rect shape-rendering="optimizeSpeed"  x="27" y="25" width="1" height="1" fill="black" />
<rect shape-rendering="optimizeSpeed"  x="29" y="25" width="1" height="1" fill="black" />
<rect shape-rendering="optimizeSpeed"  x="32" y="25" width="1" height="1" fill="black" />
<rect shape-rendering="optimizeSpeed"  x="35" y="25" width="1" height="1" fill="black" />
<rect shape-rendering="optimizeSpeed"  x="12" y="26" width="1" height="1" fill="black" />
<rect shape-rendering="optimizeSpeed"  x="13" y="26" width="1" height="1" fill="black" />
<rect shape-rendering="optimizeSpeed"  x="14" y="26" width="1" height="1" fill="black" />
<rect shape-rendering="optimizeSpeed"  x="16" y="26" width="1" height="1" fill="black" />
<rect shape-rendering="optimizeSpeed"  x="17" y="26" width="1" height="1" fill="black" />
<rect shape-rendering="optimizeSpeed"  x="18" y="26" width="1" height="1" fill="black" />
<rect shape-rendering="optimizeSpeed"  x="20" y="26" width="1" height="1" fill="black" />
<rect shape-rendering="optimizeSpeed"  x="22" y="26" width="1" height="1" fill="black" />
<rect shape-rendering="optimizeSpeed"  x="24" y="26" width="1" height="1" fill="black" />
<rect shape-rendering="optimizeSpeed"  x="25" y="26" width="1" height="1" fill="black" />
<rect shape-rendering="optimizeSpeed"  x="27" y="26" width="1" height="1" fill="black" />
<rect shape-rendering="optimizeSpeed"  x="28" y="26" width="1" height="1" fill="black" />
<rect shape-rendering="optimizeSpeed"  x="29" y="26" width="1" height="1" fill="black" />
<rect shape-rendering="optimizeSpeed"  x="30" y="26" width="1" height="1" fill="black" />
<rect shape-rendering="optimizeSpeed"  x="32" y="26" width="1" height="1" fill="black" />
<rect shape-rendering="optimizeSpeed"  x="33" y="26" width="1" height="1" fill="black" />
<rect shape-rendering="optimizeSpeed"  x="34" y="26" width="1" height="1" fill="black" />
<rect shape-rendering="optimizeSpeed"  x="35" y="26" width="1" height="1" fill="black" />
<rect shape-rendering="optimizeSpeed"  x="36" y="26" width="1" height="1" fill="black" />
<rect shape-rendering="optimizeSpeed"  x="12" y="27" width="1" height="1" fill="black" />
<rect shape-rendering="optimizeSpeed"  x="17" y="27" width="1" height="1" fill="black" />
<rect shape-rendering="optimizeSpeed"  x="19" y="27" width="1" height="1" fill="black" />
<rect shape-rendering="optimizeSpeed"  x="20" y="27" width="1" height="1" fill="black" />
<rect shape-rendering="optimizeSpeed"  x="21" y="27" width="1" height="1" fill="black" />
<rect shape-rendering="optimizeSpeed"  x="22" y="27" width="1" height="1" fill="black" />
<rect shape-rendering="optimizeSpeed"  x="26" y="27" width="1" height="1" fill="black" />
<rect shape-rendering="optimizeSpeed"  x="27" y="27" width="1" height="1" fill="black" />
<rect shape-rendering="optimizeSpeed"  x="28" y="27" width="1" height="1" fill="black" />
<rect shape-rendering="optimizeSpeed"  x="30" y="27" width="1" height="1" fill="black" />
<rect shape-rendering="optimizeSpeed"  x="31" y="27" width="1" height="1" fill="black" />
<rect shape-rendering="optimizeSpeed"  x="33" y="27" width="1" height="1" fill="black" />
<rect shape-rendering="optimizeSpeed"  x="34" y="27" width="1" height="1" fill="black" />
<rect shape-rendering="optimizeSpeed"  x="36" y="27" width="1" height="1" fill="black" />
<rect shape-rendering="optimizeSpeed"  x="12" y="28" width="1" height="1" fill="black" />
<rect shape-rendering="optimizeSpeed"  x="14" y="28" width="1" height="1" fill="black" />
<rect shape-rendering="optimizeSpeed"  x="15" y="28" width="1" height="1" fill="black" />
<rect shape-rendering="optimizeSpeed"  x="18" y="28" width="1" height="1" fill="black" />
<rect shape-rendering="optimizeSpeed"  x="19" y="28" width="1" height="1" fill="black" />
<rect shape-rendering="optimizeSpeed"  x="23" y="28" width="1" height="1" fill="black" />
<rect shape-rendering="optimizeSpeed"  x="24" y="28" width="1" height="1" fill="black" />
<rect shape-rendering="optimizeSpeed"  x="25" y="28" width="1" height="1" fill="black" />
<rect shape-rendering="optimizeSpeed"  x="27" y="28" width="1" height="1" fill="black" />
<rect shape-rendering="optimizeSpeed"  x="28" y="28" width="1" height="1" fill="black" />
<rect shape-rendering="optimizeSpeed"  x="29" y="28" width="1" height="1" fill="black" />
<rect shape-rendering="optimizeSpeed"  x="30" y="28" width="1" height="1" fill="black" />
<rect shape-rendering="optimizeSpeed"  x="31" y="28" width="1" height="1" fill="black" />
<rect shape-rendering="optimizeSpeed"  x="32" y="28" width="1" height="1" fill="black" />
<rect shape-rendering="optimizeSpeed"  x="34" y="28" width="1" height="1" fill="black" />
<rect shape-rendering="optimizeSpeed"  x="35" y="28" width="1" height="1" fill="black" />
<rect shape-rendering="optimizeSpeed"  x="20" y="29" width="1" height="1" fill="black" />
<rect shape-rendering="optimizeSpeed"  x="21" y="29" width="1" height="1" fill="black" />
<rect shape-rendering="optimizeSpeed"  x="28" y="29" width="1" height="1" fill="black" />
<rect shape-rendering="optimizeSpeed"  x="32" y="29" width="1" height="1" fill="black" />
<rect shape-rendering="optimizeSpeed"  x="34" y="29" width="1" height="1" fill="black" />
<rect shape-rendering="optimizeSpeed"  x="35" y="29" width="1" height="1" fill="black" />
<rect shape-rendering="optimizeSpeed"  x="12" y="30" width="1" height="1" fill="black" />
<rect shape-rendering="optimizeSpeed"  x="13" y="30" width="1" height="1" fill="black" />
<rect shape-rendering="optimizeSpeed"  x="14" y="30" width="1" height="1" fill="black" />
<rect shape-rendering="optimizeSpeed"  x="15" y="30" width="1" height="1" fill="black" />
<rect shape-rendering="optimizeSpeed"  x="16" y="30" width="1" height="1" fill="black" />
<rect shape-rendering="optimizeSpeed"  x="17" y="30" width="1" height="1" fill="black" />
<rect shape-rendering="optimizeSpeed"  x="18" y="30" width="1" height="1" fill="black" />
<rect shape-rendering="optimizeSpeed"  x="22" y="30" width="1" height="1" fill="black" />
<rect shape-rendering="optimizeSpeed"  x="23" y="30" width="1" height="1" fill="black" />
<rect shape-rendering="optimizeSpeed"  x="25" y="30" width="1" height="1" fill="black" />
<rect shape-rendering="optimizeSpeed"  x="26" y="30" width="1" height="1" fill="black" />
<rect shape-rendering="optimizeSpeed"  x="28" y="30" width="1" height="1" fill="black" />
<rect shape-rendering="optimizeSpeed"  x="30" y="30" width="1" height="1" fill="black" />
<rect shape-rendering="optimizeSpeed"  x="32" y="30" width="1" height="1" fill="black" />
<rect shape-rendering="optimizeSpeed"  x="36" y="30" width="1" height="1" fill="black" />
<rect shape-rendering="optimizeSpeed"  x="12" y="31" width="1" height="1" fill="black" />
<rect shape-rendering="optimizeSpeed"  x="18" y="31" width="1" height="1" fill="black" />
<rect shape-rendering="optimizeSpeed"  x="22" y="31" width="1" height="1" fill="black" />
<rect shape-rendering="optimizeSpeed"  x="23" y="31" width="1" height="1" fill="black" />
<rect shape-rendering="optimizeSpeed"  x="25" y="31" width="1" height="1" fill="black" />
<rect shape-rendering="optimizeSpeed"  x="27" y="31" width="1" height="1" fill="black" />
<rect shape-rendering="optimizeSpeed"  x="28" y="31" width="1" height="1" fill="black" />
<rect shape-rendering="optimizeSpeed"  x="32" y="31" width="1" height="1" fill="black" />
<rect shape-rendering="optimizeSpeed"  x="36" y="31" width="1" height="1" fill="black" />
<rect shape-rendering="optimizeSpeed"  x="12" y="32" width="1" height="1" fill="black" />
<rect shape-rendering="optimizeSpeed"  x="14" y="32" width="1" height="1" fill="black" />
<rect shape-rendering="optimizeSpeed"  x="15" y="32" width="1" height="1" fill="black" />
<rect shape-rendering="optimizeSpeed"  x="16" y="32" width="1" height="1" fill="black" />
<rect shape-rendering="optimizeSpeed"  x="18" y="32" width="1" height="1" fill="black" />
<rect shape-rendering="optimizeSpeed"  x="20" y="32" width="1" height="1" fill="black" />
<rect shape-rendering="optimizeSpeed"  x="22" y="32" width="1" height="1" fill="black" />
<rect shape-rendering="optimizeSpeed"  x="23" y="32" width="1" height="1" fill="black" />
<rect shape-rendering="optimizeSpeed"  x="24" y="32" width="1" height="1" fill="black" />
<rect shape-rendering="optimizeSpeed"  x="26" y="32" width="1" height="1" fill="black" />
<rect shape-rendering="optimizeSpeed"  x="27" y="32" width="1" height="1" fill="black" />
<rect shape-rendering="optimizeSpeed"  x="28" y="32" width="1" height="1" fill="black" />
<rect shape-rendering="optimizeSpeed"  x="29" y="32" width="1" height="1" fill="black" />
<rect shape-rendering="optimizeSpeed"  x="30" y="32" width="1" height="1" fill="black" />
<rect shape-rendering="optimizeSpeed"  x="31" y="32" width="1" height="1" fill="black" />
<rect shape-rendering="optimizeSpeed"  x="32" y="32" width="1" height="1" fill="black" />
<rect shape-rendering="optimizeSpeed"  x="36" y="32" width="1" height="1" fill="black" />
<rect shape-rendering="optimizeSpeed"  x="12" y="33" width="1" height="1" fill="black" />
<rect shape-rendering="optimizeSpeed"  x="14" y="33" width="1" height="1" fill="black" />
<rect shape-rendering="optimizeSpeed"  x="15" y="33" width="1" height="1" fill="black" />
<rect shape-rendering="optimizeSpeed"  x="16" y="33" width="1" height="1" fill="black" />
<rect shape-rendering="optimizeSpeed"  x="18" y="33" width="1" height="1" fill="black" />
<rect shape-rendering="optimizeSpeed"  x="20" y="33" width="1" height="1" fill="black" />
<rect shape-rendering="optimizeSpeed"  x="22" y="33" width="1" height="1" fill="black" />
<rect shape-rendering="optimizeSpeed"  x="23" y="33" width="1" height="1" fill="black" />
<rect shape-rendering="optimizeSpeed"  x="27" y="33" width="1" height="1" fill="black" />
<rect shape-rendering="optimizeSpeed"  x="28" y="33" width="1" height="1" fill="black" />
<rect shape-rendering="optimizeSpeed"  x="29" y="33" width="1" height="1" fill="black" />
<rect shape-rendering="optimizeSpeed"  x="30" y="33" width="1" height="1" fill="black" />
<rect shape-rendering="optimizeSpeed"  x="12" y="34" width="1" height="1" fill="black" />
<rect shape-rendering="optimizeSpeed"  x="14" y="34" width="1" height="1" fill="black" />
<rect shape-rendering="optimizeSpeed"  x="15" y="34" width="1" height="1" fill="black" />
<rect shape-rendering="optimizeSpeed"  x="16" y="34" width="1" height="1" fill="black" />
<rect shape-rendering="optimizeSpeed"  x="18" y="34" width="1" height="1" fill="black" />
<rect shape-rendering="optimizeSpeed"  x="22" y="34" width="1" height="1" fill="black" />
<rect shape-rendering="optimizeSpeed"  x="23" y="34" width="1" height="1" fill="black" />
<rect shape-rendering="optimizeSpeed"  x="25" y="34" width="1" height="1" fill="black" />
<rect shape-rendering="optimizeSpeed"  x="26" y="34" width="1" height="1" fill="black" />
<rect shape-rendering="optimizeSpeed"  x="29" y="34" width="1" height="1" fill="black" />
<rect shape-rendering="optimizeSpeed"  x="32" y="34" width="1" height="1" fill="black" />
<rect shape-rendering="optimizeSpeed"  x="33" y="34" width="1" height="1" fill="black" />
<rect shape-rendering="optimizeSpeed"  x="34" y="34" width="1" height="1" fill="black" />
<rect shape-rendering="optimizeSpeed"  x="35" y="34" width="1" height="1" fill="black" />
<rect shape-rendering="optimizeSpeed"  x="36" y="34" width="1" height="1" fill="black" />
<rect shape-rendering="optimizeSpeed"  x="12" y="35" width="1" height="1" fill="black" />
<rect shape-rendering="optimizeSpeed"  x="18" y="35" width="1" height="1" fill="black" />
<rect shape-rendering="optimizeSpeed"  x="20" y="35" width="1" height="1" fill="black" />
<rect shape-rendering="optimizeSpeed"  x="22" y="35" width="1" height="1" fill="black" />
<rect shape-rendering="optimizeSpeed"  x="27" y="35" width="1" height="1" fill="black" />
<rect shape-rendering="optimizeSpeed"  x="29" y="35" width="1" height="1" fill="black" />
<rect shape-rendering="optimizeSpeed"  x="31" y="35" width="1" height="1" fill="black" />
<rect shape-rendering="optimizeSpeed"  x="32" y="35" width="1" height="1" fill="black" />
<rect shape-rendering="optimizeSpeed"  x="34" y="35" width="1" height="1" fill="black" />
<rect shape-rendering="optimizeSpeed"  x="35" y="35" width="1" height="1" fill="black" />
<rect shape-rendering="optimizeSpeed"  x="36" y="35" width="1" height="1" fill="black" />
<rect shape-rendering="optimizeSpeed"  x="12" y="36" width="1" height="1" fill="black" />
<rect shape-rendering="optimizeSpeed"  x="13" y="36" width="1" height="1" fill="black" />
<rect shape-rendering="optimizeSpeed"  x="14" y="36" width="1" height="1" fill="black" />
<rect shape-rendering="optimizeSpeed"  x="15" y="36" width="1" height="1" fill="black" />
<rect shape-rendering="optimizeSpeed"  x="16" y="36" width="1" height="1" fill="black" />
<rect shape-rendering="optimizeSpeed"  x="17" y="36" width="1" height="1" fill="black" />
<rect shape-rendering="optimizeSpeed"  x="18" y="36" width="1" height="1" fill="black" />
<rect shape-rendering="optimizeSpeed"  x="20" y="36" width="1" height="1" fill="black" />
<rect shape-rendering="optimizeSpeed"  x="22" y="36" width="1" height="1" fill="black" />
<rect shape-rendering="optimizeSpeed"  x="23" y="36" width="1" height="1" fill="black" />
<rect shape-rendering="optimizeSpeed"  x="24" y="36" width="1" height="1" fill="black" />
<rect shape-rendering="optimizeSpeed"  x="28" y="36" width="1" height="1" fill="black" />
<rect shape-rendering="optimizeSpeed"  x="29" y="36" width="1" height="1" fill="black" />
<rect shape-rendering="optimizeSpeed"  x="30" y="36" width="1" height="1" fill="black" />
<rect shape-rendering="optimizeSpeed"  x="33" y="36" width="1" height="1" fill="black" />
<rect shape-rendering="optimizeSpeed"  x="36" y="36" width="1" height="1" fill="black" /></svg>